<svg width="338" height="66" viewBox="0 0 338 66" fill="none" xmlns="http://www.w3.org/2000/svg">
<g filter="url(#filter0_d_217_81)">
<path d="M51.0311 47.9504L6.92517 21.2463C2.45556 18.5402 3.97494 12.9059 9.54842 11.581L56.4251 0.413806C57.4181 0.0993109 58.4823 -0.00277828 59.5292 0.116014C60.5762 0.234806 61.5757 0.571052 62.445 1.09685C63.3142 1.62264 64.028 2.32282 64.5272 3.13926C65.0264 3.95571 65.2965 4.86488 65.3152 5.79132L62.537 43.6605C62.2076 48.1554 55.5007 50.6564 51.0311 47.9504Z" fill="#E9327C"/>
<path d="M37.042 54.5424L11.0579 9.94057C10.4639 8.92021 10.2025 7.77569 10.3026 6.63323C10.4026 5.49077 10.8602 4.39475 11.6248 3.46604C12.3895 2.53733 13.4315 1.81202 14.6359 1.37008C15.8404 0.928146 17.1605 0.786761 18.4507 0.961515L66.6058 7.48487C67.7145 7.63507 68.7667 8.01411 69.676 8.59082C70.5853 9.16752 71.3256 9.92542 71.8361 10.8022C72.3466 11.679 72.6127 12.6496 72.6125 13.6342C72.6124 14.6189 72.3459 15.5894 71.8351 16.4661L49.6518 54.5445C49.0562 55.562 48.1524 56.4155 47.04 57.0114C45.9275 57.6074 44.6494 57.9225 43.3462 57.9223C42.0429 57.9221 40.765 57.6065 39.6528 57.0102C38.5406 56.4139 37.6373 55.56 37.042 54.5424V54.5424Z" fill="#1DACE3"/>
<path d="M65.1972 7.29329L41.1921 4.04132L11.7193 11.0653L23.4833 31.2655L51.0311 47.9504C51.6389 48.3144 52.3074 48.5932 53.0127 48.7769L63.4762 30.8167L65.1972 7.29329Z" fill="#3A68B8"/>
<path d="M186.788 12.5065C186.788 11.7233 187.053 10.9578 187.549 10.3066C188.044 9.65541 188.749 9.14787 189.573 8.84817C190.398 8.54846 191.305 8.47005 192.18 8.62284C193.055 8.77563 193.859 9.15276 194.49 9.70655C195.121 10.2603 195.55 10.9659 195.724 11.734C195.898 12.5021 195.809 13.2983 195.468 14.0219C195.126 14.7454 194.548 15.3638 193.806 15.7989C193.064 16.234 192.192 16.4663 191.3 16.4663C190.107 16.4556 188.967 16.035 188.123 15.2947C187.28 14.5544 186.8 13.5534 186.788 12.5065V12.5065ZM187.541 18.4019H195.061V40.3996H187.541V18.4019Z" fill="white"/>
<path d="M227.538 29.401C227.626 30.855 227.385 32.3098 226.829 33.6818C226.274 35.0538 225.415 36.3158 224.301 37.3953C223.188 38.4749 221.843 39.3506 220.343 39.9721C218.843 40.5937 217.217 40.9488 215.56 41.017C214.166 41.0836 212.773 40.8773 211.481 40.413C210.19 39.9487 209.032 39.2381 208.091 38.3326V49.1998H200.573V18.4021H208.091V20.4694C209.032 19.5643 210.19 18.8541 211.482 18.3902C212.774 17.9262 214.167 17.7203 215.56 17.7871C217.217 17.8551 218.843 18.2099 220.343 18.8312C221.843 19.4526 223.188 20.3281 224.301 21.4074C225.414 22.4868 226.274 23.7487 226.829 25.1205C227.385 26.4924 227.626 27.9471 227.538 29.401ZM220.02 29.401C219.991 28.3711 219.616 27.3717 218.942 26.5278C218.269 25.684 217.327 25.0333 216.234 24.6571C215.141 24.2809 213.947 24.1959 212.799 24.4127C211.652 24.6296 210.602 25.1387 209.783 25.8764C208.964 26.614 208.41 27.5474 208.192 28.5597C207.974 29.572 208.101 30.6183 208.557 31.5676C209.013 32.5168 209.778 33.327 210.756 33.8966C211.734 34.4662 212.882 34.77 214.056 34.7699C214.862 34.8017 215.666 34.6836 216.417 34.4233C217.167 34.1629 217.846 33.7662 218.409 33.2591C218.973 32.7521 219.407 32.1462 219.685 31.4813C219.962 30.8164 220.077 30.1074 220.02 29.401V29.401Z" fill="white"/>
<path d="M250.745 33.7967C250.745 38.857 245.732 41.0127 240.318 41.0127C238.131 41.1864 235.935 40.7802 234.014 39.8465C232.093 38.9128 230.535 37.4947 229.543 35.7755L236.058 32.5214C236.323 33.316 236.89 34.0068 237.666 34.4781C238.441 34.9495 239.378 35.1728 240.318 35.1108C242.123 35.1108 243.023 34.6253 243.023 33.747C243.023 31.3259 230.693 32.6034 230.693 24.9903C230.693 20.1954 235.303 17.7764 240.527 17.7764C242.487 17.7224 244.427 18.1305 246.146 18.9583C247.865 19.786 249.299 21.0031 250.3 22.4828L243.886 25.5189C243.605 24.9415 243.137 24.4494 242.54 24.104C241.942 23.7586 241.243 23.5753 240.527 23.5768C239.224 23.5768 238.423 24.0084 238.423 24.809C238.415 27.3337 250.745 25.6614 250.745 33.7967Z" fill="white"/>
<path d="M278.223 18.4017V40.3994H270.705V38.3279C269.837 39.2404 268.734 39.9594 267.488 40.426C266.242 40.8926 264.888 41.0935 263.536 41.0123C258.474 41.0123 254.164 37.8445 254.164 31.9038V18.4017H261.682V30.9413C261.619 31.4656 261.687 31.9957 261.881 32.4947C262.075 32.9937 262.39 33.4496 262.805 33.8307C263.221 34.2117 263.725 34.5087 264.285 34.701C264.844 34.8934 265.444 34.9764 266.044 34.9443C268.8 34.9443 270.715 33.5373 270.715 30.4126V18.4017H278.223Z" fill="white"/>
<path d="M321.317 26.8906V40.3991H313.799V27.4646C313.799 25.2657 312.594 23.8566 310.189 23.8566C307.682 23.8566 306.28 25.3974 306.28 27.9933V40.3991H298.76V27.4646C298.76 25.2657 297.558 23.8566 295.151 23.8566C292.645 23.8566 291.242 25.3974 291.242 27.9933V40.3991H283.723V18.4014H291.254V20.4169C292.033 19.5194 293.056 18.8077 294.229 18.3467C295.403 17.8856 296.689 17.6901 297.971 17.7778C299.258 17.7225 300.539 17.9609 301.69 18.4695C302.84 18.9781 303.822 19.7398 304.537 20.6802C305.371 19.6962 306.474 18.9139 307.746 18.4063C309.017 17.8987 310.415 17.6825 311.807 17.7778C317.56 17.7864 321.317 21.3923 321.317 26.8906Z" fill="white"/>
<path d="M327.687 18.2657C330.769 18.2657 333.268 16.0726 333.268 13.3673C333.268 10.6619 330.769 8.46881 327.687 8.46881C324.604 8.46881 322.106 10.6619 322.106 13.3673C322.106 16.0726 324.604 18.2657 327.687 18.2657Z" fill="white"/>
<path d="M84.1402 8.28336H91.6608V40.3995H84.1402V8.28336ZM95.919 29.4006C95.9107 27.0944 96.6823 24.8379 98.1361 22.9168C99.5898 20.9957 101.66 19.4964 104.085 18.6088C106.511 17.7212 109.181 17.4852 111.759 17.9307C114.337 18.3762 116.707 19.4831 118.568 21.1113C120.429 22.7395 121.697 24.8157 122.213 27.0771C122.729 29.3385 122.468 31.6834 121.464 33.8147C120.461 35.9461 118.759 37.7682 116.575 39.0503C114.391 40.3323 111.823 41.0167 109.195 41.0167C107.45 41.0331 105.719 40.7441 104.102 40.1666C102.486 39.5891 101.017 38.7346 99.7807 37.6532C98.5447 36.5718 97.5666 35.285 96.9036 33.868C96.2405 32.4511 95.9058 30.9324 95.919 29.4006V29.4006ZM114.968 29.4006C114.938 28.4058 114.575 27.4407 113.924 26.6261C113.273 25.8114 112.362 25.1833 111.307 24.8204C110.251 24.4575 109.097 24.3759 107.989 24.5858C106.88 24.7957 105.867 25.2877 105.076 26.0003C104.284 26.713 103.75 27.6146 103.539 28.5925C103.329 29.5703 103.451 30.5809 103.892 31.4979C104.332 32.415 105.071 33.1976 106.016 33.7481C106.96 34.2985 108.069 34.5922 109.202 34.5926C109.979 34.612 110.751 34.49 111.471 34.2343C112.191 33.9787 112.843 33.5948 113.386 33.107C113.928 32.6192 114.35 32.0381 114.624 31.4002C114.898 30.7622 115.018 30.0814 114.977 29.4006H114.968ZM152.458 18.3953V39.2947C152.458 46.6855 145.891 49.808 139.226 49.808C136.88 49.9634 134.53 49.5489 132.435 48.6099C130.339 47.6708 128.579 46.2435 127.346 44.4844L133.761 41.2281C134.278 42.1462 135.103 42.9037 136.125 43.3992C137.146 43.8948 138.316 44.1047 139.477 44.0011C140.218 44.0899 140.972 44.0315 141.684 43.8303C142.396 43.629 143.047 43.29 143.59 42.8383C144.133 42.3866 144.553 41.8336 144.82 41.2203C145.087 40.607 145.193 39.9489 145.131 39.2947V37.2705C144.251 38.2158 143.13 38.9668 141.859 39.4634C140.588 39.9599 139.202 40.1881 137.812 40.1298C134.504 40.0395 131.366 38.8227 129.062 36.7368C126.759 34.651 125.47 31.8601 125.47 28.955C125.47 26.05 126.759 23.2591 129.062 21.1732C131.366 19.0874 134.504 17.8705 137.812 17.7803C139.202 17.7219 140.588 17.9502 141.859 18.4467C143.13 18.9432 144.251 19.6943 145.131 20.6395V18.3953H152.458ZM145.141 28.954C145.191 27.8915 144.877 26.8403 144.24 25.9355C143.604 25.0308 142.674 24.3138 141.569 23.8768C140.465 23.4398 139.236 23.3028 138.043 23.4834C136.849 23.6639 135.744 24.1538 134.869 24.89C133.995 25.6262 133.392 26.5751 133.137 27.6147C132.882 28.6543 132.987 29.737 133.439 30.7237C133.891 31.7103 134.669 32.5558 135.672 33.1514C136.676 33.7471 137.86 34.0656 139.071 34.066C139.861 34.1148 140.654 34.0179 141.398 33.7815C142.143 33.5452 142.823 33.1747 143.395 32.6938C143.967 32.2129 144.417 31.6323 144.718 30.9893C145.019 30.3463 145.163 29.6552 145.141 28.9604V28.954ZM156.716 29.3855C156.708 27.0793 157.479 24.8228 158.933 22.9017C160.387 20.9806 162.457 19.4813 164.882 18.5937C167.308 17.7061 169.978 17.4701 172.556 17.9156C175.134 18.3611 177.504 19.468 179.365 21.0962C181.226 22.7244 182.494 24.8006 183.01 27.062C183.525 29.3234 183.265 31.6683 182.261 33.7996C181.258 35.931 179.556 37.7531 177.372 39.0352C175.188 40.3172 172.619 41.0016 169.992 41.0016C168.248 41.0179 166.518 40.7294 164.903 40.1528C163.288 39.5763 161.82 38.7232 160.584 37.6434C159.348 36.5636 158.37 35.2786 157.706 33.8634C157.041 32.4482 156.705 30.9311 156.716 29.4006V29.3855ZM175.765 29.3855C175.736 28.3901 175.373 27.4243 174.721 26.6089C174.07 25.7936 173.159 25.1649 172.103 24.8016C171.047 24.4382 169.892 24.3564 168.783 24.5663C167.674 24.7762 166.66 25.2685 165.868 25.9816C165.077 26.6947 164.542 27.5969 164.331 28.5754C164.121 29.5538 164.244 30.5651 164.684 31.4825C165.125 32.4 165.865 33.183 166.81 33.7335C167.755 34.284 168.865 34.5776 169.999 34.5775C170.773 34.5955 171.543 34.4731 172.261 34.2178C172.979 33.9625 173.628 33.5798 174.17 33.0938C174.711 32.6078 175.132 32.0289 175.406 31.3934C175.681 30.7579 175.803 30.0795 175.765 29.4006V29.3855Z" fill="white"/>
</g>
<defs>
<filter id="filter0_d_217_81" x="0.3125" y="0.0679321" width="336.955" height="65.8544" filterUnits="userSpaceOnUse" color-interpolation-filters="sRGB">
<feFlood flood-opacity="0" result="BackgroundImageFix"/>
<feColorMatrix in="SourceAlpha" type="matrix" values="0 0 0 0 0 0 0 0 0 0 0 0 0 0 0 0 0 0 127 0" result="hardAlpha"/>
<feOffset dy="4"/>
<feGaussianBlur stdDeviation="2"/>
<feComposite in2="hardAlpha" operator="out"/>
<feColorMatrix type="matrix" values="0 0 0 0 0 0 0 0 0 0 0 0 0 0 0 0 0 0 0.25 0"/>
<feBlend mode="normal" in2="BackgroundImageFix" result="effect1_dropShadow_217_81"/>
<feBlend mode="normal" in="SourceGraphic" in2="effect1_dropShadow_217_81" result="shape"/>
</filter>
</defs>
</svg>
