<svg width="244" height="58" viewBox="0 0 244 58" fill="none" xmlns="http://www.w3.org/2000/svg">
<path d="M20.5297 55.2771L13.8722 45.1558L23.6425 30.3429L29.8512 39.7825L66.5022 39.7652L56.1024 55.4168L20.5297 55.2771Z" fill="#FFAD64"/>
<path d="M73.0466 29.7155L66.3891 39.8366L46.8886 39.8165L53.0979 30.3772L34.7554 2.52625L55.3983 2.60574L73.0466 29.7155Z" fill="#ADD4D3"/>
<path d="M21.5554 2.47162H34.8705L44.6008 17.3049L32.1824 17.3045L13.8742 45.1727L3.63104 29.4417L21.5554 2.47162Z" fill="#FB8351"/>
<path fill-rule="evenodd" clip-rule="evenodd" d="M36.4939 0.128391L36.4542 0.0679321H19.9825L0.46875 29.4297L13.8639 50.0015L13.8803 49.9765L18.9441 57.675L57.6714 57.8271L71.2715 37.359H71.181L76.2051 29.7212L56.9916 0.207326L36.4939 0.128391ZM49.2359 19.7092H49.3386L39.656 4.94867L53.8047 5.00312L69.888 29.7087L64.8538 37.3621L51.6612 37.3683L56.261 30.3759L49.2359 19.7092ZM33.1396 4.8759L39.7419 14.9009L30.6006 14.9006L14.9505 38.7224L13.883 40.341L6.79416 29.4541L23.1288 4.8759H33.1396ZM26.7918 30.3231L33.7651 19.7088L42.9086 19.709L49.9347 30.3773L45.3339 37.3713L31.432 37.3779L26.7918 30.3231ZM17.0409 45.1655L19.6939 41.1274L23.639 35.1462L28.2702 42.1874L42.17 42.1808L42.1476 42.215L61.6902 42.2353L54.533 53.0067L22.115 52.8793L17.0409 45.1655Z" fill="#333237"/>
<path d="M92.1576 49.4632V38.2086H87.4185V36.9451H98.713V38.2086H93.9736V49.4632H92.1576Z" fill="white"/>
<path d="M103.759 49.6581C101.884 49.6581 100.481 49.2629 99.5513 48.4724C98.6211 47.682 98.1561 46.4638 98.1561 44.818C98.1561 43.3408 98.5548 42.181 99.352 41.3386C100.164 40.4833 101.441 40.0556 103.183 40.0556C104.217 40.0556 105.066 40.2241 105.73 40.5611C106.409 40.885 106.911 41.3386 107.236 41.9218C107.576 42.4919 107.745 43.1399 107.745 43.8656V45.5956H99.9721C100.031 46.2953 100.201 46.846 100.481 47.2479C100.777 47.6495 101.212 47.941 101.788 48.1226C102.379 48.2909 103.154 48.3752 104.113 48.3752C105.191 48.3752 106.18 48.2133 107.081 47.8893V49.1333C106.623 49.3018 106.106 49.4314 105.531 49.5221C104.97 49.6128 104.379 49.6581 103.759 49.6581ZM99.9721 44.4488H106.129V43.6907C106.129 42.939 105.9 42.3623 105.442 41.9607C104.999 41.546 104.261 41.3386 103.227 41.3386C101.973 41.3386 101.116 41.5978 100.659 42.1162C100.201 42.6344 99.9721 43.412 99.9721 44.4488Z" fill="white"/>
<path d="M115.368 49.6581C113.537 49.6581 112.179 49.2435 111.293 48.4141C110.407 47.5718 109.964 46.386 109.964 44.8569C109.964 43.2371 110.466 42.0319 111.47 41.2415C112.474 40.451 113.825 40.0556 115.523 40.0556C116.217 40.0556 116.792 40.101 117.25 40.1918C117.708 40.2695 118.151 40.3991 118.579 40.5805V41.844C117.782 41.5071 116.874 41.3386 115.855 41.3386C114.556 41.3386 113.552 41.6108 112.843 42.1551C112.134 42.6863 111.78 43.5869 111.78 44.8569C111.78 46.075 112.09 46.9692 112.71 47.5394C113.33 48.0967 114.356 48.3752 115.788 48.3752C116.807 48.3752 117.745 48.2068 118.601 47.8698V49.1528C118.143 49.3213 117.649 49.4443 117.117 49.5221C116.6 49.6128 116.017 49.6581 115.368 49.6581Z" fill="white"/>
<path d="M120.637 49.4632V36.3619H122.453V41.2409C122.94 40.8911 123.508 40.606 124.158 40.3857C124.822 40.1653 125.59 40.0551 126.461 40.0551C127.731 40.0551 128.683 40.3273 129.318 40.8716C129.953 41.4159 130.27 42.2711 130.27 43.4374V49.4632H128.454V43.4957C128.454 42.6923 128.248 42.1351 127.834 41.824C127.436 41.5001 126.771 41.3381 125.841 41.3381C125.251 41.3381 124.638 41.4547 124.003 41.688C123.383 41.9082 122.866 42.1999 122.453 42.5627V49.4632H120.637Z" fill="white"/>
<path d="M137.513 49.658C136.036 49.658 134.855 49.373 133.969 48.8027C133.083 48.2325 132.641 47.4679 132.641 46.5089C132.641 45.6278 132.951 44.8697 133.571 44.2347C134.191 43.5997 135.04 43.036 136.117 42.5436C135.542 42.0383 135.054 41.5652 134.656 41.1247C134.257 40.6841 134.058 40.1527 134.058 39.5307C134.058 38.7531 134.36 38.0987 134.966 37.5675C135.586 37.0232 136.457 36.7511 137.579 36.7511C138.672 36.7511 139.521 37.0037 140.126 37.5091C140.731 38.0145 141.034 38.6883 141.034 39.5307C141.034 40.2305 140.82 40.8201 140.391 41.2996C139.963 41.7791 139.351 42.265 138.554 42.7575L142.23 46.0425C142.48 45.563 142.606 44.9539 142.606 44.2153V43.9432H144.046V44.2153C144.046 44.7208 143.979 45.2131 143.847 45.6926C143.714 46.1721 143.521 46.5868 143.271 46.9367L145.264 48.7055L144.156 49.5802L142.384 48.0447C141.868 48.6018 141.196 49.0101 140.37 49.2693C139.543 49.5285 138.59 49.658 137.513 49.658ZM137.424 41.9799C138.118 41.6041 138.642 41.2478 138.997 40.9108C139.351 40.5609 139.528 40.1203 139.528 39.5891C139.528 39.0966 139.373 38.7078 139.063 38.4227C138.768 38.1247 138.273 37.9757 137.579 37.9757C136.87 37.9757 136.354 38.1312 136.029 38.4422C135.719 38.7531 135.564 39.1355 135.564 39.5891C135.564 40.0038 135.726 40.386 136.051 40.7359C136.391 41.0857 136.848 41.5004 137.424 41.9799ZM137.513 48.5111C138.369 48.5111 139.1 48.401 139.705 48.1807C140.325 47.9474 140.849 47.6041 141.278 47.1505L137.225 43.5155C136.265 43.9043 135.549 44.3254 135.077 44.779C134.619 45.2196 134.39 45.7833 134.39 46.4702C134.39 47.1439 134.685 47.6559 135.276 48.0058C135.866 48.3426 136.612 48.5111 137.513 48.5111Z" fill="#FB8351"/>
<path d="M88.1339 27.8586V10.5258H93.8987V23.9829H102.791V27.8586H88.1339Z" fill="#FB8351"/>
<path d="M112.065 28.128C109.162 28.128 107.016 27.5627 105.626 26.4323C104.256 25.3019 103.571 23.6511 103.571 21.48C103.571 19.327 104.266 17.6852 105.657 16.5548C107.047 15.4064 109.183 14.8322 112.065 14.8322C114.968 14.8322 117.115 15.4064 118.505 16.5548C119.915 17.6852 120.621 19.327 120.621 21.48C120.621 23.6511 119.925 25.3019 118.535 26.4323C117.145 27.5627 114.989 28.128 112.065 28.128ZM112.065 24.4406C113.006 24.4406 113.68 24.2074 114.089 23.7408C114.518 23.2744 114.733 22.5207 114.733 21.48C114.733 20.4574 114.518 19.7127 114.089 19.2462C113.68 18.7617 113.006 18.5194 112.065 18.5194C111.145 18.5194 110.481 18.7617 110.072 19.2462C109.663 19.7127 109.459 20.4574 109.459 21.48C109.459 22.5207 109.663 23.2744 110.072 23.7408C110.481 24.2074 111.145 24.4406 112.065 24.4406Z" fill="#FB8351"/>
<path d="M129.158 32.5957C128.443 32.5957 127.666 32.5688 126.828 32.5149C125.99 32.4791 125.192 32.4073 124.436 32.2997C123.7 32.1921 123.087 32.0664 122.596 31.9228V28.6931C123.148 28.8546 123.782 28.9892 124.497 29.0969C125.233 29.2045 125.979 29.2852 126.736 29.3391C127.492 29.3929 128.187 29.4199 128.821 29.4199C129.904 29.4199 130.753 29.366 131.366 29.2584C132 29.1687 132.317 28.9982 132.317 28.747C132.317 28.5317 132.214 28.3881 132.01 28.3163C131.806 28.2625 131.417 28.2356 130.845 28.2356H127.012C125.52 28.2356 124.364 28.0293 123.547 27.6166C122.75 27.1859 122.351 26.549 122.351 25.7056C122.351 24.5213 123.097 23.696 124.589 23.2296C123.751 22.8527 123.138 22.3773 122.75 21.803C122.361 21.2289 122.167 20.5022 122.167 19.623C122.167 17.9722 122.801 16.7611 124.068 15.9895C125.356 15.2181 127.206 14.8322 129.618 14.8322C130.129 14.8322 130.702 14.868 131.335 14.9398C131.969 14.9937 132.429 15.0476 132.715 15.1013H138.419L138.296 18.1695H136.364C136.732 18.5823 136.916 19.0847 136.916 19.6769C136.916 20.9867 136.477 22.0274 135.598 22.7989C134.739 23.5524 133.38 23.9293 131.519 23.9293C131.254 23.9293 130.967 23.9204 130.661 23.9023C130.354 23.8665 130.068 23.8396 129.802 23.8216C129.352 23.8575 128.964 23.9293 128.637 24.037C128.31 24.1446 128.146 24.324 128.146 24.5752C128.146 24.7547 128.238 24.8803 128.422 24.952C128.606 25.0059 128.862 25.0327 129.189 25.0327H132.531C134.024 25.0327 135.199 25.3378 136.058 25.9479C136.916 26.558 137.346 27.4551 137.346 28.6393C137.346 29.8953 136.681 30.8642 135.352 31.546C134.024 32.2458 131.959 32.5957 129.158 32.5957ZM129.649 21.1571C130.548 21.1571 131.172 21.0225 131.519 20.7534C131.867 20.4842 132.041 20.0357 132.041 19.4077C132.041 18.7796 131.867 18.3221 131.519 18.0351C131.172 17.748 130.548 17.6044 129.649 17.6044C128.811 17.6044 128.198 17.748 127.809 18.0351C127.441 18.3042 127.257 18.7617 127.257 19.4077C127.257 20.0178 127.431 20.4663 127.778 20.7534C128.146 21.0225 128.77 21.1571 129.649 21.1571Z" fill="#FB8351"/>
<path d="M147.82 28.128C144.917 28.128 142.771 27.5627 141.38 26.4323C140.01 25.3019 139.326 23.6511 139.326 21.48C139.326 19.327 140.021 17.6852 141.41 16.5548C142.801 15.4064 144.937 14.8322 147.82 14.8322C150.722 14.8322 152.869 15.4064 154.259 16.5548C155.67 17.6852 156.375 19.327 156.375 21.48C156.375 23.6511 155.68 25.3019 154.289 26.4323C152.899 27.5627 150.743 28.128 147.82 28.128ZM147.82 24.4406C148.76 24.4406 149.434 24.2074 149.844 23.7408C150.273 23.2744 150.488 22.5207 150.488 21.48C150.488 20.4574 150.273 19.7127 149.844 19.2462C149.434 18.7617 148.76 18.5194 147.82 18.5194C146.9 18.5194 146.235 18.7617 145.826 19.2462C145.417 19.7127 145.213 20.4574 145.213 21.48C145.213 22.5207 145.417 23.2744 145.826 23.7408C146.235 24.2074 146.9 24.4406 147.82 24.4406Z" fill="#FB8351"/>
<path d="M158.909 13.4052V9.74484H165.134V13.4052H158.909ZM159.368 27.8582V18.7881H157.254L157.743 15.1009H165.134V27.8582H159.368Z" fill="white"/>
<path d="M167.898 33.6722V15.1013H172.897L173.173 16.124C173.765 15.7114 174.409 15.3973 175.104 15.1821C175.82 14.9488 176.647 14.8322 177.588 14.8322C179.755 14.8322 181.421 15.3166 182.587 16.2855C183.772 17.2365 184.365 18.8604 184.365 21.157C184.365 23.4359 183.741 25.1672 182.495 26.3515C181.248 27.5358 179.53 28.1278 177.343 28.1278C175.892 28.1278 174.665 27.8857 173.663 27.4012V33.6722H167.898ZM175.871 24.4406C176.71 24.4406 177.354 24.1804 177.803 23.6601C178.253 23.1397 178.478 22.3323 178.478 21.2378C178.478 20.1791 178.263 19.4615 177.834 19.0847C177.424 18.7078 176.791 18.5194 175.932 18.5194C175.074 18.5194 174.318 18.7707 173.663 19.2731V23.7947C173.991 24.01 174.318 24.1715 174.645 24.2791C174.972 24.3867 175.38 24.4406 175.871 24.4406Z" fill="white"/>
<path d="M192.047 28.1278C190.8 28.1278 189.625 28.0472 188.522 27.8857C187.437 27.7421 186.58 27.5537 185.945 27.3204V23.6869C186.661 23.9741 187.509 24.1983 188.49 24.3598C189.493 24.5214 190.341 24.6021 191.035 24.6021C191.771 24.6021 192.323 24.5842 192.691 24.5482C193.08 24.5124 193.273 24.3598 193.273 24.0907C193.273 23.7858 192.937 23.5524 192.262 23.3909C191.588 23.2294 190.74 22.9961 189.718 22.6912C188.388 22.2784 187.396 21.7941 186.742 21.2378C186.088 20.6816 185.762 19.8742 185.762 18.8154C185.762 17.5416 186.334 16.5637 187.479 15.8819C188.624 15.1821 190.422 14.8322 192.875 14.8322C193.815 14.8322 194.786 14.8949 195.788 15.0206C196.789 15.1461 197.577 15.2897 198.149 15.4512V19.004C197.535 18.7707 196.861 18.6002 196.126 18.4926C195.41 18.3848 194.756 18.3311 194.163 18.3311C193.509 18.3311 192.926 18.3579 192.415 18.4118C191.904 18.4656 191.649 18.6181 191.649 18.8693C191.649 19.1564 191.936 19.3628 192.508 19.4883C193.1 19.614 193.887 19.8113 194.868 20.0805C195.973 20.3675 196.831 20.6816 197.445 21.0225C198.078 21.3634 198.518 21.776 198.763 22.2605C199.028 22.7451 199.162 23.346 199.162 24.0638C199.162 25.3558 198.558 26.3605 197.352 27.0782C196.166 27.7779 194.397 28.1278 192.047 28.1278Z" fill="white"/>
<path d="M206.591 28.1274C204.894 28.1274 203.566 27.7058 202.605 26.8625C201.645 26.0191 201.165 24.7811 201.165 23.1482V15.1009H206.929V22.7446C206.929 23.857 207.573 24.4133 208.86 24.4133C209.33 24.4133 209.791 24.3236 210.241 24.1441C210.69 23.9647 211.047 23.7404 211.314 23.4712V15.1009H217.078V27.8582H211.682L211.529 26.8893C210.957 27.2482 210.25 27.5443 209.413 27.7775C208.595 28.0108 207.654 28.1274 206.591 28.1274Z" fill="white"/>
<path d="M219.824 27.8587V15.1013H225.159L225.312 16.124C225.947 15.7472 226.651 15.4423 227.428 15.209C228.225 14.9578 229.094 14.8322 230.035 14.8322C230.974 14.8322 231.711 14.9488 232.242 15.1821C232.774 15.4153 233.203 15.7562 233.53 16.2047C234.184 15.7922 234.92 15.4602 235.738 15.209C236.575 14.9578 237.558 14.8322 238.682 14.8322C240.378 14.8322 241.625 15.2269 242.423 16.0164C243.22 16.7879 243.618 17.9722 243.618 19.5691V27.8587H237.945V20.1612C237.945 19.587 237.813 19.1834 237.547 18.9501C237.282 18.6989 236.842 18.5733 236.228 18.5733C235.431 18.5733 234.777 18.8245 234.267 19.3268C234.307 19.5601 234.327 19.7845 234.327 19.9997C234.327 20.1971 234.327 20.4214 234.327 20.6726V27.8587H228.992V20.0805C228.992 19.5601 228.89 19.1834 228.686 18.9501C228.48 18.6989 228.093 18.5733 227.52 18.5733C227.131 18.5733 226.753 18.663 226.385 18.8424C226.017 19.0219 225.69 19.2371 225.404 19.4883V27.8587H219.824Z" fill="white"/>
<path d="M154.653 49.8188C153.117 49.8188 151.84 49.566 150.821 49.0606C149.818 48.5422 149.065 47.823 148.563 46.903C148.061 45.97 147.811 44.8815 147.811 43.6374C147.811 42.2768 148.047 41.091 148.518 40.0802C148.99 39.0695 149.729 38.2919 150.733 37.7476C151.738 37.1904 153.036 36.9118 154.63 36.9118C155.458 36.9118 156.202 36.9636 156.867 37.0673C157.547 37.171 158.181 37.3135 158.773 37.495V38.8945C158.181 38.7001 157.555 38.5511 156.89 38.4474C156.225 38.3308 155.525 38.2724 154.787 38.2724C153.501 38.2724 152.482 38.4863 151.73 38.914C150.977 39.3415 150.438 39.9571 150.113 40.7605C149.788 41.564 149.625 42.523 149.625 43.6374C149.625 45.1794 150.04 46.3717 150.866 47.2141C151.708 48.0434 153.029 48.4581 154.83 48.4581C155.494 48.4581 156.166 48.4126 156.845 48.3219C157.539 48.2313 158.181 48.0888 158.773 47.8944V49.3134C158.196 49.4689 157.569 49.5919 156.89 49.6827C156.225 49.7734 155.48 49.8188 154.653 49.8188Z" fill="white"/>
<path d="M166.229 49.8182C164.399 49.8182 163.062 49.41 162.22 48.5936C161.395 47.7642 160.982 46.572 160.982 45.0169C160.982 43.4748 161.403 42.2891 162.243 41.4597C163.085 40.6304 164.415 40.2157 166.229 40.2157C168.045 40.2157 169.375 40.6304 170.215 41.4597C171.057 42.2891 171.478 43.4748 171.478 45.0169C171.478 46.572 171.065 47.7642 170.238 48.5936C169.412 49.41 168.076 49.8182 166.229 49.8182ZM166.229 48.4576C167.484 48.4576 168.371 48.1854 168.887 47.6411C169.404 47.0839 169.662 46.2092 169.662 45.0169C169.662 43.8247 169.397 42.9566 168.865 42.4123C168.348 41.855 167.47 41.5763 166.229 41.5763C164.99 41.5763 164.104 41.855 163.573 42.4123C163.056 42.9566 162.798 43.8247 162.798 45.0169C162.798 46.2092 163.056 47.0839 163.573 47.6411C164.089 48.1854 164.974 48.4576 166.229 48.4576Z" fill="white"/>
<path d="M173.698 49.6242V48.2831H175.337V49.6242H173.698Z" fill="white"/>
</svg>
