<svg width="232" height="58" viewBox="0 0 232 58" fill="none" xmlns="http://www.w3.org/2000/svg">
<path d="M33.5742 0.0679321C29.2463 0.0679321 24.9606 0.816237 20.962 2.26987C16.9635 3.72367 13.3305 5.85436 10.27 8.54045C7.20972 11.2267 4.7822 14.4155 3.12588 17.9251C1.46974 21.4347 0.617188 25.1964 0.617188 28.9951C0.617188 32.7938 1.46974 36.5555 3.12588 40.0651C4.7822 43.5747 7.20972 46.7635 10.27 49.4498C13.3305 52.1359 16.9635 54.2666 20.962 55.7204C24.9606 57.174 29.2463 57.9223 33.5742 57.9223V43.4587C31.4102 43.4587 29.2674 43.0846 27.2681 42.3577C25.2689 41.6308 23.4523 40.5655 21.9221 39.2224C20.392 37.8794 19.1782 36.2849 18.3501 34.5301C17.5219 32.7753 17.0957 30.8946 17.0957 28.9951C17.0957 27.0957 17.5219 25.2149 18.3501 23.4601C19.1782 21.7053 20.392 20.1108 21.9221 18.7678C23.4523 17.4247 25.2689 16.3594 27.2681 15.6326C29.2674 14.9056 31.4102 14.5315 33.5742 14.5315V0.0679321Z" fill="#0F52FF"/>
<path d="M33.5742 38.6375C39.6414 38.6375 44.5599 34.3205 44.5599 28.9951C44.5599 23.6698 39.6414 19.3527 33.5742 19.3527C27.507 19.3527 22.5885 23.6698 22.5885 28.9951C22.5885 34.3205 27.507 38.6375 33.5742 38.6375Z" fill="#0F52FF"/>
<path d="M0.617188 28.9951C0.617188 32.7938 1.46974 36.5555 3.12588 40.0651C4.7822 43.5747 7.20972 46.7635 10.27 49.4498C13.3305 52.1359 16.9635 54.2666 20.962 55.7204C24.9606 57.174 29.2463 57.9223 33.5742 57.9223C37.9021 57.9223 42.1879 57.174 46.1864 55.7204C50.1849 54.2666 53.8179 52.1359 56.8784 49.4498C59.9387 46.7635 62.3662 43.5747 64.0226 40.0651C65.6787 36.5555 66.5313 32.7938 66.5313 28.9951H50.0527C50.0527 30.8946 49.6266 32.7753 48.7983 34.5301C47.9702 36.2849 46.7565 37.8794 45.2263 39.2224C43.6962 40.5655 41.8796 41.6308 39.8803 42.3577C37.881 43.0846 35.7383 43.4587 33.5742 43.4587C31.4102 43.4587 29.2674 43.0846 27.2681 42.3577C25.2689 41.6308 23.4523 40.5655 21.9221 39.2224C20.392 37.8794 19.1782 36.2849 18.3501 34.5301C17.5219 32.7753 17.0957 30.8946 17.0957 28.9951H0.617188Z" fill="#5BD0F4"/>
<path d="M44.56 28.9952C44.56 26.4379 43.4025 23.9854 41.3424 22.177C39.2821 20.3686 36.4879 19.3527 33.5744 19.3527C30.6608 19.3527 27.8666 20.3686 25.8063 22.177C23.746 23.9854 22.5885 26.4379 22.5885 28.9952H33.5744H44.56Z" fill="#5BD0F4"/>
<path d="M83.7433 18.1267H79.65V38.0865H83.7433V18.1267Z" fill="#0F52FF"/>
<path d="M86.4163 31.0155C86.4163 35.6348 90.0548 38.4862 94.8627 38.4862C99.6707 38.4862 103.309 35.6348 103.309 31.0155C103.309 26.3963 99.6707 23.5449 94.8627 23.5449C90.0548 23.5449 86.4163 26.3963 86.4163 31.0155ZM90.5096 31.0155C90.5096 28.2782 92.3288 26.6814 94.8627 26.6814C97.3967 26.6814 99.2159 28.2782 99.2159 31.0155C99.2159 33.7529 97.3967 35.3497 94.8627 35.3497C92.3288 35.3497 90.5096 33.7529 90.5096 31.0155Z" fill="#0F52FF"/>
<path d="M117.936 23.9441V25.8544H117.612C116.637 24.6284 115.078 23.5449 112.284 23.5449C108.45 23.5449 105.007 26.3963 105.007 30.7874C105.007 35.1786 108.45 38.03 112.284 38.03C115.078 38.03 116.637 36.9178 117.547 35.8059H117.871V37.1746C117.871 39.9119 116.052 41.1665 113.388 41.1665C110.724 41.1665 109.36 39.9119 108.808 38.2865L105.137 39.6838C105.981 41.8222 108.45 44.189 113.453 44.189C118.586 44.189 121.965 41.8222 121.965 37.26V23.9441H117.936ZM113.518 34.9505C110.984 34.9505 109.1 33.3537 109.1 30.7874C109.1 28.2212 110.984 26.6244 113.518 26.6244C116.052 26.6244 117.936 28.2212 117.936 30.7874C117.936 33.3537 116.052 34.9505 113.518 34.9505Z" fill="#0F52FF"/>
<path d="M124.613 31.0155C124.613 35.6348 128.251 38.4862 133.059 38.4862C137.867 38.4862 141.506 35.6348 141.506 31.0155C141.506 26.3963 137.867 23.5449 133.059 23.5449C128.251 23.5449 124.613 26.3963 124.613 31.0155ZM128.706 31.0155C128.706 28.2782 130.525 26.6814 133.059 26.6814C135.593 26.6814 137.413 28.2782 137.413 31.0155C137.413 33.7529 135.593 35.3497 133.059 35.3497C130.525 35.3497 128.706 33.7529 128.706 31.0155Z" fill="#0F52FF"/>
<path d="M144.719 19.8375C144.719 21.2918 145.986 22.2897 147.611 22.2897C149.235 22.2897 150.502 21.2918 150.502 19.8375C150.502 18.3834 149.235 17.3853 147.611 17.3853C145.986 17.3853 144.719 18.3834 144.719 19.8375ZM149.657 23.9435H145.564V38.0864H149.657V23.9435Z" fill="#5BD0F4"/>
<path d="M153.304 43.7898H157.398V36.2621H157.722C158.632 37.4027 160.191 38.4862 162.986 38.4862C166.818 38.4862 170.263 35.6348 170.263 31.0155C170.263 26.3963 166.818 23.5449 162.986 23.5449C160.191 23.5449 158.632 24.6284 157.658 25.8546H157.332V23.9441H153.304V43.7898ZM161.751 35.4067C159.218 35.4067 157.332 33.8099 157.332 31.0155C157.332 28.2212 159.218 26.6244 161.751 26.6244C164.285 26.6244 166.169 28.2212 166.169 31.0155C166.169 33.8099 164.285 35.4067 161.751 35.4067Z" fill="#5BD0F4"/>
<path d="M172.651 27.9076C172.651 30.702 175.314 31.7285 178.693 32.2988L179.538 32.4412C181.552 32.7834 182.461 33.2112 182.461 34.1236C182.461 35.0361 181.552 35.7489 179.668 35.7489C177.783 35.7489 176.258 35.0645 175.834 33.0115L172.066 33.8669C172.619 36.8324 175.444 38.4862 179.668 38.4862C183.761 38.4862 186.425 36.804 186.425 33.8385C186.425 30.8729 183.697 30.0747 180.058 29.4474L179.213 29.3047C177.523 29.0196 176.614 28.6204 176.614 27.6795C176.614 26.8241 177.459 26.2822 179.019 26.2822C180.578 26.2822 181.682 26.8525 182.071 28.3923L185.776 27.3944C184.996 25.1132 182.625 23.5449 179.019 23.5449C175.184 23.5449 172.651 25.1132 172.651 27.9076Z" fill="#5BD0F4"/>
<path d="M204.811 38.0865V23.9435H200.719V31.2431C200.719 33.8664 199.258 35.4061 196.755 35.4061C194.546 35.4061 193.312 34.3512 193.312 32.2126V23.9435H189.218V32.3837C189.218 35.891 191.721 38.3146 195.489 38.3146C198.444 38.3146 199.809 37.174 200.459 35.9764H200.783V38.0865H204.811Z" fill="#5BD0F4"/>
<path d="M208.442 23.9438V38.0867H212.537V29.6466C212.537 27.7076 213.576 26.6241 215.459 26.6241C217.085 26.6241 218.058 27.4225 218.058 28.9622V38.0867H222.153V29.6466C222.153 27.7076 223.192 26.6241 225.075 26.6241C226.701 26.6241 227.674 27.4225 227.674 28.9622V38.0867H231.769V28.7911C231.769 25.3695 229.364 23.7157 226.375 23.7157C223.744 23.7157 222.542 24.7422 221.763 25.9398H221.437C220.689 24.5997 219.358 23.7157 217.019 23.7157C214.68 23.7157 213.412 24.6281 212.797 25.7116H212.471V23.9438H208.442Z" fill="#5BD0F4"/>
</svg>
