<svg width="238" height="58" viewBox="0 0 238 58" fill="none" xmlns="http://www.w3.org/2000/svg">
<path fill-rule="evenodd" clip-rule="evenodd" d="M117.904 6.37805C120.197 4.3652 123.916 4.3652 126.209 6.37805C128.502 8.39104 128.502 11.6546 126.209 13.6676L112.227 25.9401C108.212 21.2179 108.649 14.5018 113.535 10.2127L117.904 6.37805Z" fill="#4F9E91"/>
<path fill-rule="evenodd" clip-rule="evenodd" d="M137.892 34.0666C140.186 36.0795 140.186 39.3433 137.892 41.3561C135.6 43.3691 131.881 43.3691 129.588 41.3561L115.606 29.0838C120.986 25.5602 128.638 25.9429 133.524 30.232L137.892 34.0666Z" fill="#EBE1C5"/>
<path fill-rule="evenodd" clip-rule="evenodd" d="M106.347 51.6117C104.053 53.6247 100.335 53.6247 98.0416 51.6117C95.7481 49.5987 95.7481 46.3351 98.0416 44.3221L112.024 32.0498C116.038 36.772 115.602 43.4881 110.715 47.7771L106.347 51.6117Z" fill="#EBCC6E"/>
<path fill-rule="evenodd" clip-rule="evenodd" d="M86.3579 23.9222C84.0644 21.9092 84.0644 18.6456 86.3579 16.6326C88.6513 14.6196 92.3695 14.6196 94.663 16.6326L108.645 28.9051C103.265 32.4286 95.6132 32.0458 90.7267 27.7569L86.3579 23.9222Z" fill="#ED834E"/>
<path fill-rule="evenodd" clip-rule="evenodd" d="M114.779 50.1085C118.161 46.8084 119.733 42.5855 119.494 38.4279L126.209 44.3218C126.226 44.3364 126.243 44.3511 126.26 44.3657V48.5736C126.26 51.4204 123.63 53.7281 120.387 53.7281C117.753 53.7281 115.524 52.2057 114.779 50.1085Z" fill="#ED834E"/>
<path fill-rule="evenodd" clip-rule="evenodd" d="M88.0703 31.3241C91.8301 34.2924 96.6412 35.6719 101.378 35.4626L94.6632 41.3566C94.6464 41.3712 94.6297 41.386 94.6132 41.4007H89.8191C86.5758 41.4008 83.9465 39.0929 83.9465 36.2462C83.9465 33.9341 85.6811 31.9774 88.0703 31.3241Z" fill="#4F9E91"/>
<path fill-rule="evenodd" clip-rule="evenodd" d="M136.18 26.666C132.421 23.6978 127.61 22.3182 122.873 22.5274L129.588 16.6336C129.604 16.6189 129.621 16.6041 129.638 16.5893H134.432C137.676 16.5893 140.305 18.8972 140.305 21.7439C140.305 24.0562 138.57 26.0127 136.18 26.666Z" fill="#EBCC6E"/>
<path fill-rule="evenodd" clip-rule="evenodd" d="M109.472 7.88109C106.09 11.1811 104.518 15.4039 104.756 19.5618L98.0416 13.6678C98.0247 13.6532 98.008 13.6385 97.9912 13.6239V9.416C97.9912 6.56926 100.62 4.26138 103.864 4.26138C106.498 4.26138 108.727 5.78396 109.472 7.88109Z" fill="#EBE1C5"/>
<path fill-rule="evenodd" clip-rule="evenodd" d="M103.864 0.0679321C97.9818 0.0679321 93.2133 4.25333 93.2133 9.41622V11.2344C89.6745 10.4229 85.7527 11.234 82.9795 13.668C78.8202 17.3188 78.8202 23.2378 82.9795 26.8886L84.4442 28.1741C81.2881 29.7967 79.1685 32.8043 79.1685 36.2464C79.1685 41.4093 83.937 45.5947 89.8191 45.5947H91.8905C90.9659 48.7008 91.89 52.1431 94.6631 54.577C98.8225 58.2278 105.566 58.2278 109.725 54.577L114.094 50.7425C117.948 47.3598 119.748 42.8569 119.494 38.428L126.209 44.3219C130.369 47.9726 137.112 47.9726 141.272 44.3219C145.431 40.6712 145.431 34.7521 141.272 31.1015L139.808 29.8161C142.962 28.1936 145.083 25.186 145.083 21.7438C145.083 16.5809 140.313 12.3955 134.432 12.3955H132.36C133.285 9.2893 132.361 5.84699 129.588 3.41291C125.429 -0.237833 118.685 -0.237833 114.526 3.41291L110.157 7.24759C106.303 10.6303 104.503 15.133 104.757 19.562L98.0418 13.668C98.0249 13.6534 98.0082 13.6387 97.9914 13.6241V9.41622C97.9914 6.56948 100.621 4.26174 103.864 4.26174C106.498 4.26174 108.727 5.78418 109.472 7.8813C109.692 7.66605 109.921 7.45472 110.157 7.24759L113.061 4.69849C111.212 1.92834 107.786 0.0679321 103.864 0.0679321ZM129.638 16.5893C129.621 16.604 129.605 16.6188 129.588 16.6334L122.873 22.5272C127.61 22.3181 132.421 23.6975 136.18 26.6659C138.57 26.0126 140.305 24.0559 140.305 21.7438C140.305 18.8971 137.676 16.5893 134.432 16.5893H129.638ZM94.6129 41.4009C94.6296 41.3861 94.6463 41.3713 94.6631 41.3567L101.378 35.4627C96.6411 35.672 91.8301 34.2925 88.0704 31.3243C85.6811 31.9776 83.9464 33.9342 83.9464 36.2464C83.9464 39.0932 86.5758 41.4009 89.8191 41.4009H94.6129ZM87.8873 31.1778C87.705 31.03 87.5254 30.8784 87.3484 30.7231V30.7232C87.5254 30.8786 87.705 31.03 87.8873 31.1778ZM120.387 57.9223C116.465 57.9223 113.039 56.0618 111.19 53.2916L114.094 50.7425C114.33 50.5354 114.558 50.324 114.779 50.1088C115.523 52.2059 117.753 53.7285 120.387 53.7285C123.63 53.7285 126.26 51.4208 126.26 48.574V44.3661C127.636 45.5583 129.29 46.3549 131.038 46.7557V48.574C131.038 53.7369 126.269 57.9223 120.387 57.9223ZM126.209 6.37831C123.916 4.36546 120.198 4.36546 117.904 6.37831L113.535 10.213C108.649 14.5021 108.213 21.2182 112.227 25.9404L126.209 13.6679C128.503 11.6549 128.503 8.3913 126.209 6.37831ZM137.892 41.3565C140.186 39.3435 140.186 36.0799 137.892 34.0669L133.524 30.2322C128.637 25.9433 120.986 25.5605 115.606 29.084L129.588 41.3565C131.881 43.3695 135.6 43.3695 137.892 41.3565ZM106.347 51.6116C104.053 53.6246 100.335 53.6246 98.0416 51.6116C95.7484 49.5986 95.7484 46.335 98.0416 44.322L112.024 32.0496C116.038 36.7718 115.602 43.488 110.716 47.777L106.347 51.6116ZM86.358 16.6334C84.0648 18.6464 84.0648 21.91 86.358 23.923L90.7269 27.7577C95.6135 32.0467 103.265 32.4294 108.645 28.9059L94.6631 16.6334C92.3697 14.6206 88.6514 14.6206 86.358 16.6334Z" fill="#3D3A2C"/>
<path d="M0.335938 18.9717H5.55902V33.2173H14.5298V37.0764H0.335938V18.9717Z" fill="white"/>
<path d="M24.0133 37.465C22.2624 37.465 20.7279 37.1887 19.4098 36.6362C18.0917 36.0663 17.0688 35.2893 16.3408 34.3051C15.6327 33.3036 15.2785 32.1553 15.2785 30.8602C15.2785 29.5652 15.6327 28.4255 16.3408 27.4414C17.0688 26.4398 18.0917 25.6628 19.4098 25.1103C20.7279 24.5404 22.2624 24.2555 24.0133 24.2555C25.7642 24.2555 27.2986 24.5404 28.6167 25.1103C29.9348 25.6628 30.948 26.4398 31.6561 27.4414C32.384 28.4255 32.7479 29.5652 32.7479 30.8602C32.7479 32.1553 32.384 33.3036 31.6561 34.3051C30.948 35.2893 29.9348 36.0663 28.6167 36.6362C27.2986 37.1887 25.7642 37.465 24.0133 37.465ZM24.0133 33.9165C25.0559 33.9165 25.8822 33.6489 26.492 33.1137C27.1216 32.561 27.4363 31.81 27.4363 30.8602C27.4363 29.9106 27.1216 29.1681 26.492 28.6328C25.8822 28.0802 25.0559 27.804 24.0133 27.804C22.9705 27.804 22.1345 28.0802 21.5051 28.6328C20.8951 29.1681 20.5902 29.9106 20.5902 30.8602C20.5902 31.81 20.8951 32.561 21.5051 33.1137C22.1345 33.6489 22.9705 33.9165 24.0133 33.9165Z" fill="white"/>
<path d="M42.5034 43.0337C41.5591 43.0337 40.6049 42.956 39.641 42.8007C38.6967 42.6452 37.8802 42.438 37.1917 42.179V39.0191C38.7458 39.6061 40.5163 39.8997 42.5034 39.8997C43.9394 39.8997 44.9723 39.6406 45.6017 39.1226C46.251 38.6047 46.5756 37.8449 46.5756 36.8433V36.0923C46.0051 36.5239 45.2968 36.8606 44.4509 37.1024C43.6246 37.3442 42.7393 37.465 41.7951 37.465C40.3 37.465 38.9819 37.1887 37.8408 36.6362C36.6999 36.0836 35.8047 35.3065 35.1556 34.3051C34.526 33.3036 34.2113 32.1553 34.2113 30.8602C34.2113 29.5479 34.526 28.391 35.1556 27.3896C35.785 26.388 36.6703 25.6196 37.8114 25.0843C38.9523 24.5318 40.2607 24.2555 41.7361 24.2555C43.7624 24.2555 45.4345 24.7995 46.7526 25.8873V24.644H51.7693V36.2218C51.7693 38.3801 51.0117 40.0552 49.497 41.2466C48.0019 42.438 45.6707 43.0337 42.5034 43.0337ZM43.0935 33.9425C43.9001 33.9425 44.6181 33.7612 45.2476 33.3986C45.8772 33.0359 46.3198 32.5525 46.5756 31.9481V29.7725C46.3001 29.168 45.8476 28.6932 45.2182 28.3478C44.5886 27.9853 43.8804 27.804 43.0935 27.804C42.0312 27.804 41.1754 28.0802 40.5262 28.6328C39.8769 29.1681 39.5524 29.9019 39.5524 30.8344C39.5524 31.784 39.8769 32.5438 40.5262 33.1137C41.1754 33.6662 42.0312 33.9425 43.0935 33.9425Z" fill="white"/>
<path d="M61.8216 37.465C60.0707 37.465 58.5363 37.1887 57.2183 36.6362C55.9002 36.0663 54.8771 35.2893 54.1493 34.3051C53.441 33.3036 53.0869 32.1553 53.0869 30.8602C53.0869 29.5652 53.441 28.4255 54.1493 27.4414C54.8771 26.4398 55.9002 25.6628 57.2183 25.1103C58.5363 24.5404 60.0707 24.2555 61.8216 24.2555C63.5725 24.2555 65.1069 24.5404 66.425 25.1103C67.7431 25.6628 68.7563 26.4398 69.4646 27.4414C70.1923 28.4255 70.5564 29.5652 70.5564 30.8602C70.5564 32.1553 70.1923 33.3036 69.4646 34.3051C68.7563 35.2893 67.7431 36.0663 66.425 36.6362C65.1069 37.1887 63.5725 37.465 61.8216 37.465ZM61.8216 33.9165C62.8642 33.9165 63.6905 33.6489 64.3005 33.1137C64.9299 32.561 65.2447 31.81 65.2447 30.8602C65.2447 29.9106 64.9299 29.1681 64.3005 28.6328C63.6905 28.0802 62.8642 27.804 61.8216 27.804C60.779 27.804 59.9428 28.0802 59.3134 28.6328C58.7034 29.1681 58.3985 29.9106 58.3985 30.8602C58.3985 31.81 58.7034 32.561 59.3134 33.1137C59.9428 33.6489 60.779 33.9165 61.8216 33.9165Z" fill="white"/>
<path d="M153.858 18.9717H159.081V37.0764H153.858V18.9717Z" fill="white"/>
<path d="M161.726 24.644H166.743V25.8873C168.06 24.7995 169.732 24.2555 171.758 24.2555C173.234 24.2555 174.543 24.5318 175.683 25.0843C176.825 25.6196 177.709 26.388 178.339 27.3896C178.968 28.3738 179.284 29.5221 179.284 30.8344C179.284 32.1294 178.968 33.2863 178.339 34.3051C177.709 35.3065 176.825 36.0836 175.683 36.6362C174.563 37.1887 173.254 37.465 171.758 37.465C170.815 37.465 169.909 37.3355 169.045 37.0764C168.199 36.8348 167.49 36.498 166.92 36.0663V42.7487H161.726V24.644ZM170.402 33.9165C171.464 33.9165 172.32 33.6404 172.968 33.0877C173.617 32.5352 173.943 31.784 173.943 30.8344C173.943 29.8846 173.617 29.1422 172.968 28.6069C172.32 28.0544 171.464 27.778 170.402 27.778C169.615 27.778 168.906 27.9594 168.276 28.322C167.647 28.6673 167.196 29.1422 166.92 29.7465V31.9481C167.196 32.5525 167.647 33.0359 168.276 33.3986C168.906 33.7439 169.615 33.9165 170.402 33.9165Z" fill="white"/>
<path d="M187.026 37.465C185.886 37.465 184.696 37.3615 183.457 37.1542C182.217 36.9643 181.232 36.688 180.505 36.3254V32.9842C181.312 33.3986 182.275 33.7439 183.397 34.0202C184.537 34.2792 185.58 34.4087 186.525 34.4087C187.213 34.4087 187.715 34.3655 188.029 34.2792C188.345 34.1929 188.502 34.0202 188.502 33.7612C188.502 33.5539 188.394 33.3899 188.178 33.269C187.981 33.1309 187.606 32.9927 187.056 32.8546C186.525 32.6993 185.906 32.5352 185.197 32.3625C183.997 32.0516 183.053 31.7322 182.364 31.4041C181.675 31.076 181.165 30.6616 180.829 30.1609C180.495 29.6602 180.328 29.03 180.328 28.2702C180.328 26.9233 180.928 25.9218 182.128 25.2656C183.348 24.5922 185.01 24.2555 187.115 24.2555C188.138 24.2555 189.211 24.3505 190.331 24.5404C191.473 24.7304 192.328 24.9808 192.899 25.2916V28.581C192.309 28.2357 191.521 27.9507 190.538 27.7263C189.574 27.5017 188.669 27.3896 187.823 27.3896C187.155 27.3896 186.633 27.4499 186.259 27.5708C185.886 27.6745 185.699 27.8643 185.699 28.1407C185.699 28.3997 185.886 28.5983 186.259 28.7364C186.633 28.8745 187.302 29.0472 188.266 29.2544C188.895 29.3926 189.161 29.4529 189.062 29.4357C190.321 29.7293 191.295 30.0573 191.984 30.42C192.673 30.7826 193.154 31.2143 193.43 31.715C193.726 32.1984 193.873 32.8201 193.873 33.5799C193.873 34.7713 193.283 35.7209 192.103 36.4289C190.941 37.1197 189.249 37.465 187.026 37.465Z" fill="white"/>
<path d="M201.627 37.4652C199.68 37.4652 198.214 36.9903 197.231 36.0406C196.267 35.0908 195.785 33.8391 195.785 32.285V24.6441H200.979V31.7669C200.979 33.2001 201.716 33.9167 203.192 33.9167C203.861 33.9167 204.471 33.7786 205.021 33.5023C205.571 33.2259 206.024 32.8202 206.378 32.285V24.6441H211.572V37.0766H206.556V35.7298C205.946 36.2995 205.208 36.7312 204.342 37.0248C203.477 37.3184 202.572 37.4652 201.627 37.4652Z" fill="white"/>
<path d="M214.231 24.644H219.042V25.9909C219.632 25.4384 220.311 25.0153 221.078 24.7217C221.844 24.4109 222.661 24.2555 223.527 24.2555C224.589 24.2555 225.435 24.3936 226.065 24.6699C226.714 24.9462 227.235 25.3607 227.628 25.9131C228.218 25.3952 228.937 24.9893 229.783 24.6959C230.629 24.4023 231.485 24.2555 232.35 24.2555C234.219 24.2555 235.547 24.6786 236.334 25.5247C237.121 26.3535 237.514 27.5535 237.514 29.1248V37.0764H232.556V29.7725C232.556 29.0817 232.409 28.581 232.113 28.2702C231.819 27.9594 231.327 27.804 230.639 27.804C229.753 27.804 229.035 28.0802 228.484 28.6328C228.504 28.9263 228.514 29.3753 228.514 29.9796V37.0764H223.556V29.5912C223.556 28.9522 223.429 28.4946 223.173 28.2184C222.917 27.9421 222.464 27.804 221.816 27.804C220.811 27.804 219.947 28.296 219.218 29.2803V37.0764H214.231V24.644Z" fill="white"/>
</svg>
